<?xml version="1.0" encoding="UTF-8"?>
<!-- Generator: Adobe Illustrator 16.0.0, SVG Export Plug-In . SVG Version: 6.00 Build 0)  -->
<!DOCTYPE svg PUBLIC "-//W3C//DTD SVG 1.1//EN" "http://www.w3.org/Graphics/SVG/1.1/DTD/svg11.dtd">
<svg version="1.1" id="Calque_1" xmlns="http://www.w3.org/2000/svg" xmlns:xlink="http://www.w3.org/1999/xlink" x="0px" y="0px" width="116.667px" height="46.667px" viewBox="0 0 116.667 46.667" enable-background="new 0 0 116.667 46.667" xml:space="preserve">
<g>
	<path d="M22.717,26.956h-2.16l-8.388-9.972l-7.56,10.368V3.556h1.62v18.756L19.874,3.556h2.052L13.142,15.58L22.717,26.956z"/>
	<path d="M35.173,26.956v-23.4h15.156v1.656H36.793v9.216h10.548v1.656H36.793v9.18h13.536v1.692H35.173z"/>
</g>
<g>
	<path d="M73.328,17.091l9.216-13.536h1.944l-10.368,15.3v8.1H72.5v-8.1l-10.368-15.3h1.944L73.328,17.091z"/>
	<path d="M110.822,17.902c0.611,0.899,0.918,1.866,0.918,2.897c0,0.889-0.216,1.734-0.648,2.538   c-0.432,0.805-1.057,1.507-1.872,2.106c-1.68,1.2-3.636,1.8-5.868,1.8c-1.104,0-2.159-0.156-3.168-0.468   c-1.008-0.312-1.907-0.756-2.699-1.332C96.116,24.436,95.288,23.2,95,21.736l1.548-0.864c0.072,1.32,0.72,2.4,1.944,3.24   c0.624,0.48,1.355,0.846,2.195,1.098s1.729,0.378,2.664,0.378c1.92,0,3.54-0.491,4.86-1.476c1.271-0.937,1.908-2.04,1.908-3.313   c0-0.743-0.234-1.439-0.702-2.088c-0.468-0.647-1.122-1.199-1.962-1.656c-0.792-0.407-2.208-0.731-4.248-0.972   c-0.168-0.023-0.774-0.12-1.818-0.288c-1.044-0.167-1.938-0.432-2.682-0.792c-1.176-0.576-2.101-1.338-2.772-2.286   c-0.672-0.947-1.008-1.974-1.008-3.078c0-0.888,0.222-1.722,0.666-2.502c0.444-0.779,1.074-1.47,1.891-2.069   c0.792-0.576,1.691-1.021,2.699-1.333c1.009-0.312,2.064-0.468,3.168-0.468c2.232,0,4.188,0.6,5.868,1.8   c1.392,1.056,2.208,2.28,2.448,3.672l-1.548,0.864c-0.024-0.6-0.198-1.176-0.522-1.729c-0.323-0.552-0.786-1.056-1.386-1.512   c-0.648-0.48-1.393-0.847-2.232-1.099s-1.716-0.378-2.628-0.378s-1.794,0.126-2.646,0.378c-0.853,0.252-1.59,0.618-2.214,1.099   c-0.625,0.456-1.104,0.966-1.44,1.53c-0.336,0.563-0.504,1.146-0.504,1.745c0,0.744,0.275,1.482,0.828,2.215   c0.552,0.732,1.235,1.302,2.052,1.71c0.504,0.24,1.063,0.414,1.674,0.521c0.612,0.108,1.398,0.223,2.358,0.342   c0.168,0.024,0.588,0.085,1.26,0.181s1.32,0.229,1.944,0.396c0.624,0.168,1.152,0.372,1.584,0.612   C109.351,16.24,110.209,17.001,110.822,17.902z"/>
</g>
<g>
	<path d="M10.32,37.184c-0.729,0.099-0.854,0.225-1.233,1.064c-0.462,1.051-1.205,2.774-1.975,4.861H6.734   c-0.63-1.681-1.275-3.278-1.933-4.903c-0.322-0.812-0.434-0.91-1.19-1.022v-0.35h2.872v0.35c-0.757,0.099-0.785,0.211-0.561,0.813   c0.364,0.98,0.924,2.451,1.331,3.46c0.49-1.162,0.938-2.438,1.247-3.348c0.21-0.672,0.126-0.826-0.672-0.925v-0.35h2.493V37.184z"/>
	<path d="M18.341,41.765c-0.883,1.106-1.849,1.358-2.283,1.358c-1.723,0-2.732-1.4-2.732-2.983c0-0.967,0.351-1.821,0.925-2.451   c0.574-0.645,1.331-1.022,2.059-1.022c1.163,0,2.101,1.036,2.101,2.129c0,0.28-0.07,0.393-0.322,0.448   c-0.238,0.042-1.989,0.182-3.656,0.238c0.014,1.905,1.106,2.689,2.087,2.689c0.561,0,1.093-0.225,1.597-0.7L18.341,41.765z    M14.503,38.908c0.785,0,1.555-0.015,2.367-0.042c0.252,0,0.336-0.084,0.336-0.28c0.014-0.729-0.462-1.401-1.233-1.401   C15.33,37.184,14.713,37.773,14.503,38.908z"/>
	<path d="M25.858,42.956v-0.364c0.826-0.084,0.924-0.196,0.924-1.162v-2.34c0-0.967-0.336-1.597-1.275-1.597   c-0.56,0-1.106,0.351-1.527,0.714v3.292c0,0.953,0.084,1.009,0.911,1.093v0.364h-3.04v-0.364c0.953-0.098,1.022-0.168,1.022-1.093   v-2.899c0-0.896-0.084-0.938-0.84-1.078v-0.322c0.672-0.126,1.331-0.294,1.947-0.574v1.12c0.28-0.21,0.588-0.42,0.938-0.658   c0.393-0.252,0.757-0.42,1.163-0.42c1.106,0,1.807,0.771,1.807,2.129v2.703c0,0.953,0.07,1.009,0.883,1.093v0.364H25.858z"/>
</g>
<g>
	<path d="M39.011,42.62c-0.645,0.098-1.359,0.294-2.059,0.504l-0.084-0.084v-0.994c-0.322,0.238-0.645,0.49-1.037,0.729   c-0.406,0.237-0.7,0.35-1.079,0.35c-0.938,0-1.737-0.574-1.737-2.087v-2.745c0-0.771-0.056-0.827-0.854-0.981v-0.321   c0.658-0.042,1.331-0.127,2.003-0.253c-0.042,0.435-0.042,1.093-0.042,2.046v1.877c0,1.246,0.603,1.582,1.233,1.582   c0.504,0,1.037-0.21,1.513-0.672v-3.264c0-0.799-0.084-0.854-1.093-0.995v-0.321c0.729-0.042,1.457-0.099,2.199-0.253v4.679   c0,0.7,0.112,0.799,0.645,0.826l0.392,0.028V42.62z"/>
	<path d="M47.522,41.765c-0.883,1.106-1.849,1.358-2.284,1.358c-1.723,0-2.731-1.4-2.731-2.983c0-0.967,0.351-1.821,0.925-2.451   c0.574-0.645,1.331-1.022,2.059-1.022c1.163,0,2.101,1.036,2.101,2.129c0,0.28-0.07,0.393-0.322,0.448   c-0.238,0.042-1.989,0.182-3.656,0.238c0.014,1.905,1.106,2.689,2.087,2.689c0.561,0,1.093-0.225,1.597-0.7L47.522,41.765z    M43.684,38.908c0.785,0,1.555-0.015,2.367-0.042c0.252,0,0.336-0.084,0.336-0.28c0.014-0.729-0.462-1.401-1.233-1.401   C44.511,37.184,43.894,37.773,43.684,38.908z"/>
	<path d="M57.165,42.956v-0.364c0.882-0.084,0.98-0.168,0.98-1.12v-2.886c0-0.869-0.042-0.925-0.882-1.064v-0.337   c0.714-0.111,1.373-0.294,1.989-0.546v4.833c0,0.952,0.098,1.036,0.994,1.12v0.364H57.165z M57.907,34.733   c0-0.42,0.336-0.729,0.714-0.729c0.393,0,0.7,0.309,0.7,0.729c0,0.379-0.308,0.715-0.714,0.715   C58.244,35.448,57.907,35.112,57.907,34.733z"/>
	<path d="M67.681,42.956v-0.364c0.827-0.084,0.925-0.196,0.925-1.162v-2.34c0-0.967-0.336-1.597-1.274-1.597   c-0.561,0-1.106,0.351-1.527,0.714v3.292c0,0.953,0.084,1.009,0.911,1.093v0.364h-3.04v-0.364c0.952-0.098,1.022-0.168,1.022-1.093   v-2.899c0-0.896-0.084-0.938-0.841-1.078v-0.322c0.673-0.126,1.331-0.294,1.947-0.574v1.12c0.28-0.21,0.589-0.42,0.938-0.658   c0.393-0.252,0.757-0.42,1.163-0.42c1.106,0,1.807,0.771,1.807,2.129v2.703c0,0.953,0.07,1.009,0.883,1.093v0.364H67.681z"/>
	<path d="M77.845,38.487c-0.266-0.826-0.756-1.387-1.442-1.387c-0.532,0-0.911,0.421-0.911,0.967c0,0.631,0.561,0.952,1.191,1.219   c1.05,0.435,1.765,0.938,1.765,1.905c0,1.274-1.19,1.933-2.312,1.933c-0.714,0-1.358-0.266-1.61-0.477   c-0.099-0.195-0.225-1.148-0.225-1.652l0.364-0.07c0.252,0.925,0.883,1.737,1.723,1.737c0.519,0,0.995-0.393,0.995-0.98   c0-0.616-0.406-0.953-1.106-1.275c-0.841-0.392-1.751-0.854-1.751-1.933c0-0.98,0.84-1.807,2.129-1.807   c0.574,0,0.952,0.126,1.246,0.238c0.112,0.321,0.267,1.148,0.309,1.498L77.845,38.487z"/>
	<path d="M82.113,42.956v-0.364c0.883-0.084,0.98-0.168,0.98-1.12v-2.886c0-0.869-0.042-0.925-0.883-1.064v-0.337   c0.715-0.111,1.373-0.294,1.989-0.546v4.833c0,0.952,0.099,1.036,0.995,1.12v0.364H82.113z M82.855,34.733   c0-0.42,0.336-0.729,0.715-0.729c0.392,0,0.7,0.309,0.7,0.729c0,0.379-0.309,0.715-0.715,0.715   C83.191,35.448,82.855,35.112,82.855,34.733z"/>
	<path d="M95.458,42.591c-0.309,0.056-1.359,0.238-2.172,0.532v-0.91l-0.854,0.504c-0.546,0.322-0.924,0.406-1.092,0.406   c-1.121,0-2.592-1.022-2.592-2.983c0-1.947,1.709-3.474,3.614-3.474c0.196,0,0.603,0.042,0.924,0.153v-1.975   c0-0.925-0.069-0.967-1.078-1.036v-0.337c0.729-0.098,1.667-0.308,2.186-0.49v8.362c0,0.729,0.098,0.799,0.616,0.854l0.448,0.042   V42.591z M93.287,37.899c-0.336-0.49-0.91-0.715-1.442-0.715c-0.645,0-1.821,0.547-1.821,2.578c0,1.667,1.022,2.479,1.919,2.479   c0.505,0,1.009-0.224,1.345-0.476V37.899z"/>
	<path d="M103.942,41.765c-0.883,1.106-1.85,1.358-2.283,1.358c-1.724,0-2.731-1.4-2.731-2.983c0-0.967,0.35-1.821,0.924-2.451   c0.574-0.645,1.331-1.022,2.06-1.022c1.162,0,2.101,1.036,2.101,2.129c0,0.28-0.069,0.393-0.321,0.448   c-0.238,0.042-1.989,0.182-3.656,0.238c0.014,1.905,1.106,2.689,2.087,2.689c0.561,0,1.093-0.225,1.597-0.7L103.942,41.765z    M100.104,38.908c0.784,0,1.555-0.015,2.367-0.042c0.252,0,0.336-0.084,0.336-0.28c0.014-0.729-0.462-1.401-1.232-1.401   C100.93,37.184,100.314,37.773,100.104,38.908z"/>
	<path d="M109.722,38.151c0.42-0.7,1.022-1.484,1.695-1.484c0.476,0,0.812,0.364,0.812,0.7c0,0.28-0.182,0.561-0.448,0.687   c-0.168,0.069-0.294,0.056-0.378-0.028c-0.196-0.21-0.364-0.294-0.588-0.294c-0.364,0-0.813,0.42-1.121,1.204v2.563   c0,0.925,0.07,1.009,1.148,1.093v0.364h-3.222v-0.364c0.869-0.084,0.967-0.168,0.967-1.093v-2.899c0-0.925-0.07-0.98-0.868-1.093   v-0.308c0.687-0.112,1.303-0.28,1.975-0.574v1.526H109.722z"/>
</g>
</svg>